<svg xmlns="http://www.w3.org/2000/svg" width="84.227" height="35.134" viewBox="0 0 84.227 35.134">
  <g id="Group_27588" data-name="Group 27588" transform="translate(-7010.495 299.041)">
    <path id="Path_68434" data-name="Path 68434" d="M-1816.859,15191.772a220.992,220.992,0,0,0,39.587,0" transform="translate(8863.894 -15464.14)" fill="none" stroke="#4ae1cf" stroke-linecap="round" stroke-width="15"/>
    <g id="Group_27587" data-name="Group 27587" transform="translate(7010.495 -299.041)">
      <path id="Path_832" data-name="Path 832" d="M1113.827,130.5V132H1112v2.61h1.827v3.178a24.148,24.148,0,0,0,.1,3.6c.333,1.4,1.325,2.062,3.067,2.055a4.268,4.268,0,0,0,1.977-.372c.529-.268.522-.222.17-1.494l-.313-1.129-.287.157a1.293,1.293,0,0,1-.665.17.9.9,0,0,1-.875-.444c-.13-.176-.137-.268-.156-2.949l-.02-2.767h2.225V132h-2.218v-3h-3Z" transform="translate(-1040.422 -129)" fill="#221f1f"/>
      <path id="Path_833" data-name="Path 833" d="M26.627,171.192a5.553,5.553,0,0,0-4.522,4.456,8.007,8.007,0,0,0,.124,3.106,5.541,5.541,0,0,0,4.443,3.954,8.85,8.85,0,0,0,1.3.078,5.338,5.338,0,0,0,4.1-1.69,1.394,1.394,0,0,0,.241-.333,9.82,9.82,0,0,0-.953-.959l-.959-.894-.359.372a2.885,2.885,0,0,1-4.078.013,3.538,3.538,0,0,1-.007-4.711,2.807,2.807,0,0,1,2.081-.822,2.637,2.637,0,0,1,2.055.861l.313.326.953-.894a11.812,11.812,0,0,0,.953-.959,4.951,4.951,0,0,0-1.214-1.161,5.673,5.673,0,0,0-3.249-.842A8.2,8.2,0,0,0,26.627,171.192Z" transform="translate(-21.55 -168.347)" fill="#221f1f"/>
      <path id="Path_834" data-name="Path 834" d="M189.784,171.238a5.527,5.527,0,0,0-4.1,3.119,5.683,5.683,0,0,0-.529,2.395,5.218,5.218,0,0,0,.1,1.5,5.445,5.445,0,0,0,2.917,3.954,5.918,5.918,0,0,0,2.16.62,6.891,6.891,0,0,0,3.5-.574,5.625,5.625,0,0,0,2.923-3.673,7.883,7.883,0,0,0,.006-3.151,5.533,5.533,0,0,0-4.483-4.189A8.86,8.86,0,0,0,189.784,171.238Zm2.414,2.825a3.059,3.059,0,0,1,1.612,2.917,3.3,3.3,0,0,1-.894,2.434,2.679,2.679,0,0,1-2.349.737,2.946,2.946,0,0,1-2.323-3.138,3.011,3.011,0,0,1,2.01-3.112,3.128,3.128,0,0,1,.887-.065A1.9,1.9,0,0,1,192.2,174.063Z" transform="translate(-174.039 -168.4)" fill="#221f1f"/>
      <path id="Path_835" data-name="Path 835" d="M390.318,171.225a4.117,4.117,0,0,0-2.01.8l-.307.235v-.848h-3v11.157h3v-7.621l.313-.274a5.412,5.412,0,0,1,.842-.535,2.174,2.174,0,0,1,1.148-.3,1.864,1.864,0,0,1,2.029.966c.13.287.137.385.157,4.026l.02,3.739H395.5v-4.261c0-4.006-.006-4.293-.124-4.763a2.756,2.756,0,0,0-.77-1.422,3.129,3.129,0,0,0-1.631-.874A11.988,11.988,0,0,0,390.318,171.225Z" transform="translate(-360.858 -168.413)" fill="#221f1f"/>
      <path id="Path_836" data-name="Path 836" d="M576.318,171.164a4.121,4.121,0,0,0-2.036.822l-.281.222v-.855h-3v11.157h3V174.89l.222-.2a3.28,3.28,0,0,1,2.232-.927,1.769,1.769,0,0,1,1.86,1l.157.339.019,3.7.02,3.706H581.5v-4.228a38.649,38.649,0,0,0-.1-4.665,2.991,2.991,0,0,0-2.427-2.421A10.875,10.875,0,0,0,576.318,171.164Z" transform="translate(-534.722 -168.352)" fill="#221f1f"/>
      <path id="Path_837" data-name="Path 837" d="M760.944,171.363a5.607,5.607,0,0,0-4.626,4.567,7.493,7.493,0,0,0,.078,2.871,6.216,6.216,0,0,0,1.064,2.153,6.142,6.142,0,0,0,5.428,2.029,7.764,7.764,0,0,0,2.61-.685,4.145,4.145,0,0,0,1.272-.842c0-.033-.3-.5-.659-1.031l-.659-.972-.248.2a5.581,5.581,0,0,1-1.6.75,3.324,3.324,0,0,1-3.993-1.468,3.786,3.786,0,0,1-.241-.607l-.039-.176h8.241l-.039-1.064a5.866,5.866,0,0,0-.522-2.584,5.076,5.076,0,0,0-1.194-1.736,5,5,0,0,0-2.349-1.311A9.855,9.855,0,0,0,760.944,171.363Zm2.382,2.695a2.377,2.377,0,0,1,1.331,1.736l.046.268h-2.688c-3.047,0-2.786.059-2.577-.568a2.537,2.537,0,0,1,1.579-1.592,2.877,2.877,0,0,1,1.1-.1A1.991,1.991,0,0,1,763.326,174.058Z" transform="translate(-707.852 -168.557)" fill="#221f1f"/>
      <path id="Path_838" data-name="Path 838" d="M947.723,171.252a5.464,5.464,0,0,0-2.969,1.605,6.279,6.279,0,0,0-.94,6.942,5.6,5.6,0,0,0,2.636,2.519c2.388,1.057,5.494.483,6.877-1.266l.2-.254-.542-.515c-.294-.281-.731-.7-.979-.933l-.437-.411-.241.281a2.8,2.8,0,0,1-2.519.927,2.769,2.769,0,0,1-1.69-.848,3,3,0,0,1-.861-2.362,3.175,3.175,0,0,1,.15-1.109,2.8,2.8,0,0,1,2.975-2.01,2.027,2.027,0,0,1,1.1.268,2.57,2.57,0,0,1,.789.574l.3.339.379-.352c.2-.189.646-.607.979-.927l.613-.574-.248-.3a5.059,5.059,0,0,0-2.408-1.494A7.939,7.939,0,0,0,947.723,171.252Z" transform="translate(-882.605 -168.387)" fill="#221f1f"/>
      <path id="Path_839" data-name="Path 839" d="M19.489,395.288a3.636,3.636,0,0,0-2.662,3.765v.574H15v2.61h1.827v8.548h3v-8.548h2.218v-2.61H19.828v-.476a1.433,1.433,0,0,1,.652-1.351,1.625,1.625,0,0,1,1.533.059,1.931,1.931,0,0,0,.391.183c.013-.007.261-.4.561-.887.418-.679.522-.894.476-.979a3.647,3.647,0,0,0-1.3-.783A6.873,6.873,0,0,0,19.489,395.288Z" transform="translate(-15 -377.834)" fill="#221f1f"/>
      <path id="Path_840" data-name="Path 840" d="M136.319,459.351a5.488,5.488,0,0,0-4.45,4.143,4.808,4.808,0,0,0-.17,1.573,5.61,5.61,0,0,0,5.859,5.892,5.855,5.855,0,0,0,3.334-.881,5.687,5.687,0,0,0,2.382-3.249,8.588,8.588,0,0,0,.091-3.008,5.5,5.5,0,0,0-4.137-4.378A9.454,9.454,0,0,0,136.319,459.351Zm2.466,2.864a2.494,2.494,0,0,1,1.233,1.259,3.509,3.509,0,0,1-1.22,4.554,2.731,2.731,0,0,1-3.093-.47,3.719,3.719,0,0,1-.1-4.783,2.365,2.365,0,0,1,2.055-.822A1.951,1.951,0,0,1,138.785,462.216Z" transform="translate(-124.085 -437.728)" fill="#221f1f"/>
      <path id="Path_841" data-name="Path 841" d="M332.507,459.131a5.32,5.32,0,0,0-2.192,1.227l-.313.294v-1.39h-3v11.157h3v-7.36l.333-.3a3.619,3.619,0,0,1,2.571-.874l.62.02V459l-.274.006A3.887,3.887,0,0,0,332.507,459.131Z" transform="translate(-306.643 -437.468)" fill="#221f1f"/>
    </g>
  </g>
</svg>
